<svg width="100" height="100" viewBox="0 0 100 100" fill="none" xmlns="http://www.w3.org/2000/svg">
<g id="clarity:connect-solid" clip-path="url(#clip0_672_1056)">
<path id="Vector" d="M47.2214 33.3333H39.3047C35.262 33.2776 31.3267 34.6346 28.1775 37.1701C25.0284 39.7057 22.8629 43.2608 22.0547 47.2222H5.55469V52.7778H22.0269C22.821 56.7515 24.9864 60.3196 28.1447 62.8584C31.303 65.3973 35.2532 66.7452 39.3047 66.6667H47.2214V33.3333Z" fill="white"/>
<path id="Vector_2" d="M78.4162 47.2222C77.6063 43.2513 75.4326 39.6888 72.272 37.1522C69.1113 34.6155 65.1628 33.2646 61.1107 33.3333H52.7773V66.6667H61.1107C65.1621 66.7452 69.1123 65.3973 72.2706 62.8584C75.4289 60.3196 77.5944 56.7515 78.3885 52.7778H94.444V47.2222H78.4162Z" fill="white"/>
</g>
<defs>
<clipPath id="clip0_672_1056">
<rect width="100" height="100" fill="white"/>
</clipPath>
</defs>
</svg>
