<svg width="51" height="51" viewBox="0 0 51 51" fill="none" xmlns="http://www.w3.org/2000/svg">
<g id="ep:arrow-up">
<path id="Vector" d="M26.631 33.6876L43.2247 16.2719C43.5017 15.9813 43.6563 15.5953 43.6563 15.1938C43.6563 14.7923 43.5017 14.4063 43.2247 14.1157L43.206 14.0969C43.0717 13.9556 42.91 13.843 42.7309 13.7661C42.5517 13.6892 42.3587 13.6495 42.1638 13.6495C41.9688 13.6495 41.7758 13.6892 41.5967 13.7661C41.4175 13.843 41.2559 13.9556 41.1216 14.0969L25.4966 30.4969L9.87783 14.0969C9.74354 13.9556 9.58189 13.843 9.40273 13.7661C9.22356 13.6892 9.03062 13.6495 8.83564 13.6495C8.64066 13.6495 8.44772 13.6892 8.26856 13.7661C8.08939 13.843 7.92774 13.9556 7.79345 14.0969L7.7747 14.1157C7.49769 14.4063 7.34315 14.7923 7.34315 15.1938C7.34315 15.5953 7.49769 15.9813 7.7747 16.2719L24.3685 33.6876C24.5144 33.8407 24.6899 33.9626 24.8843 34.046C25.0788 34.1293 25.2882 34.1722 25.4997 34.1722C25.7113 34.1722 25.9206 34.1293 26.1151 34.046C26.3095 33.9626 26.485 33.8407 26.631 33.6876Z" fill="white"/>
</g>
</svg>
