<svg width="40" height="40" viewBox="0 0 40 40" fill="none" xmlns="http://www.w3.org/2000/svg">
<path id="Star 11 (Stroke)" fill-rule="evenodd" clip-rule="evenodd" d="M11.081 3.65163L18.6701 11.3506V17.6191H21.3969V11.3476L28.9223 3.65752L36.8483 17.6191L28.9274 31.5718L20.037 22.388L11.076 31.5777L3.1517 17.6191L11.081 3.65163ZM9.08175 33.6166L0 17.6191L10.0023 8.61094e-07L29.9977 0L40 17.6191L30.9182 33.6166L35.2555 38.0276L33.3312 40L28.6489 35.2381H11.3511L6.66885 40L4.74451 38.0276L9.08175 33.6166ZM14.0691 32.4541H25.9476L20.03 26.3411L14.0691 32.4541ZM25.9226 2.78401L14.0944 2.78401L20.03 8.80553L25.9226 2.78401Z" fill="white"/>
</svg>
