<svg width="101" height="101" viewBox="0 0 101 101" fill="none" xmlns="http://www.w3.org/2000/svg">
<g id="mdi:gear">
<path id="Vector" d="M50.4998 65.0833C46.6321 65.0833 42.9228 63.5469 40.1878 60.812C37.4529 58.0771 35.9165 54.3677 35.9165 50.5C35.9165 46.6323 37.4529 42.9229 40.1878 40.188C42.9228 37.4531 46.6321 35.9167 50.4998 35.9167C54.3676 35.9167 58.0769 37.4531 60.8118 40.188C63.5467 42.9229 65.0832 46.6323 65.0832 50.5C65.0832 54.3677 63.5467 58.0771 60.8118 60.812C58.0769 63.5469 54.3676 65.0833 50.4998 65.0833ZM81.4582 54.5417C81.6248 53.2083 81.7498 51.875 81.7498 50.5C81.7498 49.125 81.6248 47.75 81.4582 46.3333L90.2498 39.5417C91.0415 38.9167 91.2498 37.7917 90.7498 36.875L82.4165 22.4583C81.9165 21.5417 80.7915 21.1667 79.8748 21.5417L69.4998 25.7083C67.3332 24.0833 65.0832 22.6667 62.4582 21.625L60.9165 10.5833C60.8319 10.0926 60.5762 9.6476 60.1949 9.32729C59.8136 9.00697 59.3312 8.83198 58.8332 8.83332H42.1665C41.1248 8.83332 40.2498 9.58332 40.0832 10.5833L38.5415 21.625C35.9165 22.6667 33.6665 24.0833 31.4998 25.7083L21.1248 21.5417C20.2082 21.1667 19.0832 21.5417 18.5832 22.4583L10.2498 36.875C9.70815 37.7917 9.95815 38.9167 10.7498 39.5417L19.5415 46.3333C19.3748 47.75 19.2498 49.125 19.2498 50.5C19.2498 51.875 19.3748 53.2083 19.5415 54.5417L10.7498 61.4583C9.95815 62.0833 9.70815 63.2083 10.2498 64.125L18.5832 78.5417C19.0832 79.4583 20.2082 79.7917 21.1248 79.4583L31.4998 75.25C33.6665 76.9167 35.9165 78.3333 38.5415 79.375L40.0832 90.4167C40.2498 91.4167 41.1248 92.1667 42.1665 92.1667H58.8332C59.8748 92.1667 60.7498 91.4167 60.9165 90.4167L62.4582 79.375C65.0832 78.2917 67.3332 76.9167 69.4998 75.25L79.8748 79.4583C80.7915 79.7917 81.9165 79.4583 82.4165 78.5417L90.7498 64.125C91.2498 63.2083 91.0415 62.0833 90.2498 61.4583L81.4582 54.5417Z" fill="white"/>
</g>
</svg>
