<svg xmlns="http://www.w3.org/2000/svg" xmlns:xlink="http://www.w3.org/1999/xlink" preserveAspectRatio="xMidYMid meet" width="1920" height="1080" viewBox="0 0 1920 1080" style="width:100%;height:100%"><defs><animate repeatCount="indefinite" dur="2s" begin="0s" xlink:href="#_R_G_L_2_G" fill="freeze" attributeName="opacity" from="0" to="0" keyTimes="0;0.34;0.64;0.92;1" values="0;1;1;0;0" keySplines="0.333 0 0.667 1;0.333 0 0.833 1;0.167 0 0.667 1;0 0 0 0" calcMode="spline"/><animateMotion repeatCount="indefinite" dur="2s" begin="0s" xlink:href="#_R_G_L_2_G" fill="freeze" keyTimes="0;0.34;0.64;0.92;1" path="M957.13 1047.81 C957.13,1013.15 957.13,874.48 957.13,839.81 C957.13,839.81 957.13,839.81 957.13,839.81 C957.13,874.48 957.13,1013.15 957.13,1047.81 C957.13,1047.81 957.13,1047.81 957.13,1047.81 " keyPoints="0;0.5;0.5;1;1" keySplines="0.628 0 0.335 1;0.333 0.333 0.667 0.667;0.577 0 0.434 1;0 0 0 0" calcMode="spline"/><animate repeatCount="indefinite" dur="2s" begin="0s" xlink:href="#_R_G_L_0_G" fill="freeze" attributeName="opacity" from="0" to="0" keyTimes="0;0.34;0.64;0.92;1" values="0;1;1;0;0" keySplines="0.333 0 0.667 1;0.167 0 0.833 1;0.167 0 0.833 1;0 0 0 0" calcMode="spline"/><animateMotion repeatCount="indefinite" dur="2s" begin="0s" xlink:href="#_R_G_L_0_G" fill="freeze" keyTimes="0;0.34;0.64;0.92;1" path="M962.18 203.6 C962.18,218.1 962.18,276.1 962.18,290.6 C962.18,290.6 962.18,290.6 962.18,290.6 C962.18,276.1 962.18,218.1 962.18,203.6 C962.18,203.6 962.18,203.6 962.18,203.6 " keyPoints="0;0.5;0.5;1;1" keySplines="0.602 0 0.282 1;0.333 0.333 0.282 0.282;0.577 0 0.403 1;0 0 0 0" calcMode="spline"/><animate attributeType="XML" attributeName="opacity" dur="2s" from="0" to="1" xlink:href="#time_group"/></defs><g id="_R_G"><g id="_R_G_L_3_G"><rect id="_R_G_L_3_G_S" fill="#ffffff" width="1920" height="1080"/></g><g id="_R_G_L_2_G"><path id="_R_G_L_2_G_D_0_P_0" stroke="#000000" stroke-linecap="round" stroke-linejoin="round" fill="none" stroke-width="68.882" stroke-opacity="1" d=" M-361.07 178.29 C-361.07,178.29 2.81,-182.2 2.81,-182.2 C2.81,-182.2 361.07,182.2 361.07,182.2 "/></g><g id="_R_G_L_1_G" transform=" translate(960, 491.977) translate(0, 0)"><path id="_R_G_L_1_G_D_0_P_0" stroke="#000000" stroke-linecap="round" stroke-linejoin="round" fill="none" stroke-width="68.882" stroke-opacity="1" d=" M465.42 1.26 C465.42,1.26 234.89,-401.49 234.89,-401.49 C234.89,-401.49 -230.53,-401.49 -230.53,-401.49 C-230.53,-401.49 -465.41,-3.79 -465.41,-3.79 C-465.41,-3.79 -234.88,398.96 -234.88,398.96 C-234.88,398.96 230.53,401.49 230.53,401.49 C230.53,401.49 465.42,1.26 465.42,1.26z "/></g><g id="_R_G_L_0_G"><path id="_R_G_L_0_G_D_0_P_0" stroke="#000000" stroke-linecap="round" stroke-linejoin="round" fill="none" stroke-width="68.882" stroke-opacity="1" d=" M232.71 -200.11 C232.71,-200.11 -0.41,30.69 -0.41,30.69 C-0.41,30.69 -1.33,200.12 -1.33,200.12 C-1.33,200.12 -0.41,30.69 -0.41,30.69 C-0.41,30.69 -232.71,-200.11 -232.71,-200.11 "/></g></g><g id="time_group"/></svg>