<svg width="75" height="76" viewBox="0 0 75 76" fill="none" xmlns="http://www.w3.org/2000/svg">
<g id="streamline:wifi-solid">
<path id="Vector" fill-rule="evenodd" clip-rule="evenodd" d="M20.9791 18.6125C28.8672 15.3434 37.5478 14.4877 45.9224 16.1537C54.2969 17.8196 61.9891 21.9323 68.0256 27.9714C68.3934 28.3662 68.837 28.6828 69.3298 28.9024C69.8227 29.122 70.3547 29.2401 70.8942 29.2496C71.4337 29.2591 71.9695 29.1599 72.4698 28.9578C72.9701 28.7557 73.4246 28.455 73.8061 28.0734C74.1877 27.6919 74.4884 27.2374 74.6905 26.7371C74.8926 26.2368 74.9918 25.701 74.9823 25.1615C74.9728 24.622 74.8547 24.09 74.6351 23.5971C74.4155 23.1043 74.0989 22.6607 73.7041 22.2929C68.9502 17.5369 63.3058 13.7642 57.0934 11.1902C50.881 8.61622 44.2224 7.29138 37.4979 7.29138C30.7734 7.29138 24.1147 8.61622 17.9024 11.1902C11.69 13.7642 6.0456 17.5369 1.29163 22.2929C0.908062 22.6637 0.602186 23.1072 0.391848 23.5975C0.181511 24.0878 0.0709244 24.615 0.0665418 25.1485C0.0621592 25.682 0.164068 26.211 0.366322 26.7047C0.568576 27.1984 0.867125 27.6468 1.24455 28.0239C1.62197 28.401 2.07071 28.6991 2.56459 28.9009C3.05846 29.1027 3.58757 29.2041 4.12106 29.1992C4.65454 29.1943 5.18171 29.0832 5.6718 28.8724C6.1619 28.6616 6.6051 28.3553 6.97556 27.9714C10.9834 23.9624 15.7419 20.7822 20.9791 18.6125ZM37.5006 30.5536C33.5983 30.5535 29.7345 31.325 26.1314 32.8236C22.5284 34.3221 19.2571 36.5183 16.5059 39.2857C15.7543 40.0416 14.7332 40.4679 13.6673 40.4709C12.6013 40.4739 11.5779 40.0534 10.822 39.3018C10.0661 38.5502 9.63979 37.5291 9.63677 36.4632C9.63376 35.3972 10.0543 34.3737 10.8059 33.6179C14.3043 30.0994 18.4637 27.3073 23.045 25.402C27.6262 23.4968 32.5389 22.5159 37.5006 22.5159C42.4622 22.5159 47.3749 23.4968 51.9562 25.402C56.5374 27.3073 60.6968 30.0994 64.1952 33.6179C64.9468 34.3737 65.3674 35.3972 65.3643 36.4632C65.3613 37.5291 64.935 38.5502 64.1791 39.3018C63.4233 40.0534 62.3998 40.4739 61.3338 40.4709C60.2679 40.4679 59.2468 40.0416 58.4952 39.2857C55.744 36.5183 52.4727 34.3221 48.8697 32.8236C45.2666 31.325 41.4028 30.5535 37.5006 30.5536ZM32.2506 46.2982C34.8261 45.2111 37.6697 44.9261 40.4097 45.4805C43.1498 46.0348 45.659 47.4026 47.6095 49.4054C48.3533 50.169 49.37 50.606 50.4359 50.62C51.5019 50.6341 52.5297 50.2241 53.2934 49.4804C54.0571 48.7366 54.494 47.7199 54.5081 46.6539C54.5222 45.588 54.1122 44.5601 53.3684 43.7964C51.3249 41.698 48.8817 40.0302 46.183 38.8913C43.4844 37.7525 40.585 37.1658 37.6559 37.1658C34.7268 37.1658 31.8274 37.7525 29.1288 38.8913C26.4301 40.0302 23.987 41.698 21.9434 43.7964C21.1989 44.5594 20.788 45.5869 20.8011 46.6528C20.8141 47.7188 21.2501 48.7359 22.0131 49.4804C22.776 50.2249 23.8035 50.6358 24.8694 50.6227C25.9354 50.6097 26.9525 50.1737 27.697 49.4107C28.9934 48.0821 30.5416 47.0214 32.2506 46.3036V46.2982ZM28.972 63.2482C28.972 60.9863 29.8705 58.817 31.4699 57.2176C33.0694 55.6182 35.2386 54.7196 37.5006 54.7196C39.7625 54.7196 41.9318 55.6182 43.5312 57.2176C45.1306 58.817 46.0291 60.9863 46.0291 63.2482C46.0291 65.5101 45.1306 67.6794 43.5312 69.2788C41.9318 70.8782 39.7625 71.7768 37.5006 71.7768C35.2386 71.7768 33.0694 70.8782 31.4699 69.2788C29.8705 67.6794 28.972 65.5101 28.972 63.2482Z" fill="white"/>
</g>
</svg>
